{
    "asset": {
        "version": "2.0",
        "generator": "Open Asset Import Library (assimp v5.0.5eb040c7)"
    },
    "accessors": [
        {
            "bufferView": 0,
            "byteOffset": 0,
            "componentType": 5126,
            "count": 15384,
            "type": "VEC3",
            "max": [
                0.8549000024795532,
                1.5764700174331666,
                -0.0007999999797903001
            ],
            "min": [
                -1.686269998550415,
                -1.6392199993133546,
                -0.03959999978542328
            ]
        },
        {
            "bufferView": 1,
            "byteOffset": 0,
            "componentType": 5126,
            "count": 15384,
            "type": "VEC2",
            "max": [
                0.5952399969100952,
                0.7587599754333496
            ],
            "min": [
                0.06541000306606293,
                0.08829998970031738
            ]
        },
        {
            "bufferView": 2,
            "byteOffset": 0,
            "componentType": 5125,
            "count": 89115,
            "type": "SCALAR",
            "max": [
                15383
            ],
            "min": [
                0
            ]
        }
    ],
    "buffers": [
        {
            "byteLength": 664140,
            "uri": "result.bin"
        }
    ],
    "bufferViews": [
        {
            "buffer": 0,
            "byteOffset": 0,
            "byteLength": 184608,
            "target": 34962
        },
        {
            "buffer": 0,
            "byteOffset": 184608,
            "byteLength": 123072,
            "target": 34962
        },
        {
            "buffer": 0,
            "byteOffset": 307680,
            "byteLength": 356460,
            "target": 34963
        }
    ],
    "materials": [
        {
            "name": "DefaultMaterial",
            "pbrMetallicRoughness": {
                "baseColorFactor": [
                    0.6000000238418579,
                    0.6000000238418579,
                    0.6000000238418579,
                    1.0
                ],
                "metallicFactor": 0.0
            }
        },
        {
            "name": "t01",
            "pbrMetallicRoughness": {
                "baseColorFactor": [
                    0.6000000238418579,
                    0.6000000238418579,
                    0.6000000238418579,
                    1.0
                ],
                "metallicFactor": 0.0
            }
        }
    ],
    "meshes": [
        {
            "name": "defaultobject",
            "primitives": [
                {
                    "mode": 4,
                    "material": 1,
                    "indices": 2,
                    "attributes": {
                        "POSITION": 0,
                        "TEXCOORD_0": 1
                    }
                }
            ]
        }
    ],
    "nodes": [
        {
            "name": "input.obj",
            "children": [
                1
            ]
        },
        {
            "name": "defaultobject",
            "mesh": 0
        }
    ],
    "scenes": [
        {
            "nodes": [
                0
            ]
        }
    ],
    "scene": 0
}